<svg xmlns="http://www.w3.org/2000/svg" xmlns:xlink="http://www.w3.org/1999/xlink" id="logo" width="310.539" height="81.53" viewBox="0 0 310.539 81.53"><defs><clipPath id="clip-path"><rect id="Rectangle_25" data-name="Rectangle 25" width="310.539" height="81.53" fill="none"/></clipPath><clipPath id="clip-path-2"><rect id="Rectangle_27" data-name="Rectangle 27" width="310.532" height="81.529" fill="none"/></clipPath></defs><rect id="Rectangle_19" data-name="Rectangle 19" width="2.763" height="19.338" transform="translate(173.621 1.575)" fill="#fff"/><g id="Group_30" data-name="Group 30"><g id="Group_29" data-name="Group 29" clip-path="url(#clip-path)"><path id="Path_1" data-name="Path 1" d="M173.533,13.02c0-3.177,1.823-4.862,4.641-4.862,2.514,0,3.95,1.409,3.95,4.282v8.122h2.653V12.136c0-4.31-2.515-6.354-6.078-6.354a6.278,6.278,0,0,0-5.277,2.348V5.92h-2.541V20.562h2.652Z" transform="translate(10.364 0.351)" fill="#fff"/><path id="Path_2" data-name="Path 2" d="M190.747,13.02c0-3.177,1.823-4.862,4.641-4.862,2.514,0,3.95,1.409,3.95,4.282v8.122h2.653V12.136c0-4.31-2.515-6.354-6.078-6.354a6.278,6.278,0,0,0-5.277,2.348V5.92H188.1V20.562h2.652Z" transform="translate(11.408 0.351)" fill="#fff"/><path id="Path_3" data-name="Path 3" d="M211.734,20.728a7.284,7.284,0,0,0,7.6-7.486,7.612,7.612,0,0,0-15.221,0,7.307,7.307,0,0,0,7.625,7.486m0-12.625a4.8,4.8,0,0,1,4.917,5.139,4.937,4.937,0,1,1-9.863,0A4.825,4.825,0,0,1,211.734,8.1" transform="translate(12.379 0.351)" fill="#fff"/><path id="Path_4" data-name="Path 4" d="M227.7,20.554l6.408-14.641h-2.6l-5.139,11.74L221.35,5.913h-2.762L225,20.554Z" transform="translate(13.257 0.359)" fill="#fff"/><path id="Path_5" data-name="Path 5" d="M239.42,12.136c-4.366,0-5.884,1.935-5.884,4.282,0,2.541,2.1,4.309,5.415,4.309,2.293,0,3.922-.773,4.807-2.1v1.934h2.514V11.723c0-4.006-2.266-5.94-6.272-5.94a9.748,9.748,0,0,0-6.049,1.878l1.1,1.989A7.412,7.412,0,0,1,239.7,8.076c2.624,0,3.922,1.3,3.922,3.535v.525Zm4.2,3.951a4.246,4.246,0,0,1-4.227,2.6c-2.017,0-3.232-.911-3.232-2.376,0-1.243.746-2.266,3.37-2.266h4.089Z" transform="translate(14.164 0.351)" fill="#fff"/><path id="Path_6" data-name="Path 6" d="M250.162,16.317c0,2.956,1.685,4.585,4.641,4.585a5,5,0,0,0,3.2-1.021l-.828-1.906a3.343,3.343,0,0,1-2.072.69,2.158,2.158,0,0,1-2.293-2.459V8.278h4.2V6.1h-4.2v-3.2h-2.652V6.1h-2.486V8.278h2.486Z" transform="translate(15.021 0.176)" fill="#fff"/><rect id="Rectangle_20" data-name="Rectangle 20" width="2.652" height="14.641" transform="translate(275.68 6.272)" fill="#fff"/><path id="Path_7" data-name="Path 7" d="M261.269,3.453a1.728,1.728,0,1,0,0-3.453,1.746,1.746,0,0,0-1.8,1.741,1.724,1.724,0,0,0,1.8,1.713" transform="translate(15.737 0.001)" fill="#fff"/><path id="Path_8" data-name="Path 8" d="M272.028,17.653,267,5.913h-2.762l6.409,14.641h2.707l6.408-14.641h-2.6Z" transform="translate(16.026 0.359)" fill="#fff"/><path id="Path_9" data-name="Path 9" d="M293.616,13.324c0-4.5-3.011-7.542-7.239-7.542a7.172,7.172,0,0,0-7.348,7.46c0,4.365,3.15,7.486,7.874,7.486a7.346,7.346,0,0,0,5.773-2.376l-1.464-1.713a5.468,5.468,0,0,1-4.227,1.768c-2.9,0-4.973-1.713-5.3-4.282H293.56c.028-.248.056-.58.056-.8m-11.934-1.105a4.725,4.725,0,0,1,9.392,0Z" transform="translate(16.923 0.351)" fill="#fff"/><path id="Path_10" data-name="Path 10" d="M184.247,29.982h-2.264l-7.956,13.591-8.067-13.591h-2.266V49.32h2.653V35.314l6.989,11.658h1.271l6.99-11.741.028,14.09h2.652Z" transform="translate(9.928 1.819)" fill="#fff"/><path id="Path_11" data-name="Path 11" d="M194.274,49.225a7.346,7.346,0,0,0,5.773-2.376l-1.464-1.713a5.467,5.467,0,0,1-4.227,1.768c-2.9,0-4.972-1.713-5.3-4.282h11.879c.027-.248.055-.58.055-.8,0-4.5-3.011-7.542-7.238-7.542a7.17,7.17,0,0,0-7.348,7.46c0,4.365,3.149,7.486,7.873,7.486m-.525-12.708a4.567,4.567,0,0,1,4.7,4.2h-9.393a4.563,4.563,0,0,1,4.7-4.2" transform="translate(11.305 2.08)" fill="#fff"/><path id="Path_12" data-name="Path 12" d="M209.221,49.552a6.185,6.185,0,0,0,5.222-2.486v2.321h2.541v-20.5h-2.652v8.066a6.232,6.232,0,0,0-5.111-2.348,7.106,7.106,0,0,0-7.4,7.46,7.129,7.129,0,0,0,7.4,7.486m.222-12.625a4.819,4.819,0,0,1,4.917,5.139,4.937,4.937,0,1,1-9.863,0,4.825,4.825,0,0,1,4.946-5.139" transform="translate(12.24 1.753)" fill="#fff"/><rect id="Rectangle_21" data-name="Rectangle 21" width="2.652" height="14.641" transform="translate(233.696 36.498)" fill="#fff"/><path id="Path_13" data-name="Path 13" d="M221.686,28.5a1.746,1.746,0,0,0-1.8,1.741,1.8,1.8,0,1,0,1.8-1.741" transform="translate(13.336 1.729)" fill="#fff"/><path id="Path_14" data-name="Path 14" d="M233.509,36.6a4.561,4.561,0,0,1,3.977,2.1l2.017-1.3a6.53,6.53,0,0,0-5.967-3.123c-4.5,0-7.735,3.094-7.735,7.46s3.233,7.486,7.735,7.486a6.552,6.552,0,0,0,5.967-3.149L237.486,44.8a4.563,4.563,0,0,1-3.977,2.1,4.852,4.852,0,0,1-5.029-5.165,4.859,4.859,0,0,1,5.029-5.139" transform="translate(13.695 2.08)" fill="#fff"/><path id="Path_15" data-name="Path 15" d="M241.877,38.147a7.412,7.412,0,0,1,4.642-1.574c2.624,0,3.922,1.3,3.922,3.535v.525h-4.2c-4.366,0-5.884,1.935-5.884,4.282,0,2.541,2.1,4.309,5.415,4.309,2.293,0,3.922-.773,4.807-2.1v1.934h2.514V40.22c0-4.006-2.266-5.94-6.271-5.94a9.749,9.749,0,0,0-6.05,1.878Zm8.565,6.437a4.246,4.246,0,0,1-4.227,2.6c-2.016,0-3.232-.911-3.232-2.376,0-1.243.746-2.266,3.37-2.266h4.089Z" transform="translate(14.578 2.08)" fill="#fff"/><rect id="Rectangle_22" data-name="Rectangle 22" width="2.652" height="20.498" transform="translate(272.034 30.641)" fill="#fff"/><path id="Path_16" data-name="Path 16" d="M171.235,58.479h-7.541V77.818h2.762V71.96h4.779c5.029,0,8.066-2.541,8.066-6.74s-3.038-6.74-8.066-6.74m-.083,11.078h-4.7V60.882h4.7c3.535,0,5.387,1.575,5.387,4.337s-1.852,4.338-5.387,4.338" transform="translate(9.928 3.547)" fill="#fff"/><path id="Path_17" data-name="Path 17" d="M183.656,65.373V62.915h-2.541V77.556h2.652V70.263c0-3.2,1.769-4.945,4.614-4.945a4.7,4.7,0,0,1,.608.028V62.777c-2.569,0-4.392.884-5.332,2.6" transform="translate(10.984 3.808)" fill="#fff"/><path id="Path_18" data-name="Path 18" d="M197.307,62.777a7.474,7.474,0,1,0,7.6,7.458,7.286,7.286,0,0,0-7.6-7.458m0,12.625a5.158,5.158,0,1,1,4.917-5.166,4.848,4.848,0,0,1-4.917,5.166" transform="translate(11.504 3.808)" fill="#fff"/><path id="Path_19" data-name="Path 19" d="M218.212,65.452A6.226,6.226,0,0,0,213.1,63.1a7.106,7.106,0,0,0-7.4,7.458,7.129,7.129,0,0,0,7.4,7.487,6.185,6.185,0,0,0,5.222-2.486v2.321h2.541v-20.5h-2.653Zm-4.889,10.277a5.158,5.158,0,1,1,4.917-5.166,4.848,4.848,0,0,1-4.917,5.166" transform="translate(12.475 3.481)" fill="#fff"/><path id="Path_20" data-name="Path 20" d="M235.216,70.477c0,3.149-1.768,4.862-4.53,4.862-2.515,0-3.95-1.436-3.95-4.309V62.907h-2.653v8.426c0,4.31,2.514,6.382,6.3,6.382a5.958,5.958,0,0,0,4.973-2.376v2.21h2.513V62.907h-2.652Z" transform="translate(13.59 3.816)" fill="#fff"/><path id="Path_21" data-name="Path 21" d="M247.754,65.1a4.566,4.566,0,0,1,3.977,2.1l2.016-1.3a6.529,6.529,0,0,0-5.967-3.123c-4.5,0-7.735,3.094-7.735,7.46s3.233,7.486,7.735,7.486a6.551,6.551,0,0,0,5.967-3.149L251.731,73.3a4.565,4.565,0,0,1-3.977,2.1,5.154,5.154,0,0,1,0-10.3" transform="translate(14.559 3.808)" fill="#fff"/><path id="Path_22" data-name="Path 22" d="M261.3,75.66a2.158,2.158,0,0,1-2.293-2.459V65.273h4.2V63.09h-4.2v-3.2H256.36v3.2h-2.487v2.183h2.487v8.039c0,2.956,1.684,4.586,4.641,4.586a5,5,0,0,0,3.2-1.022l-.828-1.906a3.343,3.343,0,0,1-2.073.69" transform="translate(15.397 3.633)" fill="#fff"/><path id="Path_23" data-name="Path 23" d="M267.462,67.059c0-1.16,1.133-2.016,3.452-2.016a7.643,7.643,0,0,1,4.228,1.16l1.133-2.1a10.662,10.662,0,0,0-5.332-1.326c-3.757,0-6.105,1.768-6.105,4.392,0,5.829,9.254,2.984,9.254,6.272,0,1.243-1.022,1.989-3.48,1.989a9.4,9.4,0,0,1-5.139-1.52l-1.105,2.1a10.564,10.564,0,0,0,6.05,1.713c3.895,0,6.326-1.685,6.326-4.338,0-5.69-9.282-2.872-9.282-6.326" transform="translate(16.034 3.808)" fill="#fff"/><path id="Path_24" data-name="Path 24" d="M3.842,67.684H.225v9.664H1.246V74.3h2.6c2.458,0,3.949-1.243,3.949-3.3S6.3,67.684,3.842,67.684M3.814,73.4H1.246V68.568H3.814c1.933,0,2.954.884,2.954,2.43,0,1.519-1.021,2.4-2.954,2.4" transform="translate(0.014 4.106)" fill="#fff"/><path id="Path_25" data-name="Path 25" d="M11.957,69.9a3.693,3.693,0,1,0,0,7.385,3.693,3.693,0,0,0,0-7.385m0,6.516a2.834,2.834,0,1,1,2.692-2.83,2.658,2.658,0,0,1-2.692,2.83" transform="translate(0.501 4.24)" fill="#fff"/><path id="Path_26" data-name="Path 26" d="M17.139,71.94c0-.69.579-1.2,1.891-1.2a3.715,3.715,0,0,1,2.139.622l.429-.787A4.927,4.927,0,0,0,19.03,69.9c-1.85,0-2.871.884-2.871,2.07,0,2.871,4.707,1.381,4.707,3.272,0,.717-.565,1.187-1.946,1.187a4.384,4.384,0,0,1-2.582-.815l-.441.773a4.846,4.846,0,0,0,2.954.9c1.891,0,3-.815,3-2.071,0-2.787-4.707-1.311-4.707-3.271" transform="translate(0.964 4.24)" fill="#fff"/><rect id="Rectangle_23" data-name="Rectangle 23" width="0.98" height="7.261" transform="translate(24.344 74.191)" fill="#fff"/><path id="Path_27" data-name="Path 27" d="M23.461,67.137a.7.7,0,1,0,.718.677.7.7,0,0,0-.718-.677" transform="translate(1.379 4.072)" fill="#fff"/><path id="Path_28" data-name="Path 28" d="M28.66,76.528A1.163,1.163,0,0,1,27.4,75.2V70.867h2.208v-.828H27.4V68.451h-.981v1.588h-1.3v.828h1.3v4.39A1.924,1.924,0,0,0,28.55,77.37a2.329,2.329,0,0,0,1.532-.511l-.345-.7a1.618,1.618,0,0,1-1.077.373" transform="translate(1.524 4.152)" fill="#fff"/><rect id="Rectangle_24" data-name="Rectangle 24" width="0.98" height="7.261" transform="translate(33.11 74.191)" fill="#fff"/><path id="Path_29" data-name="Path 29" d="M31.726,67.137a.7.7,0,1,0,.718.677.7.7,0,0,0-.718-.677" transform="translate(1.881 4.072)" fill="#fff"/><path id="Path_30" data-name="Path 30" d="M37.468,69.9a3.693,3.693,0,1,0,3.686,3.686A3.571,3.571,0,0,0,37.468,69.9m0,6.516a2.834,2.834,0,1,1,2.692-2.83,2.658,2.658,0,0,1-2.692,2.83" transform="translate(2.048 4.24)" fill="#fff"/><path id="Path_31" data-name="Path 31" d="M46.059,69.9A3.051,3.051,0,0,0,43.3,71.291V69.952h-.939v7.261h.98V73.4a2.381,2.381,0,0,1,2.54-2.623A2.028,2.028,0,0,1,48.06,73.1v4.113h.98V73A2.779,2.779,0,0,0,46.059,69.9" transform="translate(2.569 4.24)" fill="#fff"/><path id="Path_32" data-name="Path 32" d="M53.795,69.9a3.5,3.5,0,0,0-3.548,3.686,3.838,3.838,0,0,0,6.612,2.513l-.552-.635a2.864,2.864,0,0,1-2.223.954,2.688,2.688,0,0,1-2.857-2.526H57.3c0-.11.014-.222.014-.3a3.46,3.46,0,0,0-3.52-3.686m-2.568,3.258a2.58,2.58,0,0,1,5.149,0Z" transform="translate(3.047 4.24)" fill="#fff"/><path id="Path_33" data-name="Path 33" d="M64.226,71.5a3.17,3.17,0,0,0-2.761-1.435,3.693,3.693,0,0,0,0,7.385,3.147,3.147,0,0,0,2.8-1.505v1.436h.939V67.137h-.98ZM61.548,76.58a2.834,2.834,0,1,1,2.692-2.83,2.658,2.658,0,0,1-2.692,2.83" transform="translate(3.508 4.072)" fill="#fff"/><path id="Path_34" data-name="Path 34" d="M72.719,76.528A1.163,1.163,0,0,1,71.463,75.2V70.867h2.208v-.828H71.463V68.451h-.981v1.588h-1.3v.828h1.3v4.39a1.924,1.924,0,0,0,2.127,2.113,2.332,2.332,0,0,0,1.533-.511l-.346-.7a1.616,1.616,0,0,1-1.077.373" transform="translate(4.196 4.152)" fill="#fff"/><path id="Path_35" data-name="Path 35" d="M78.04,69.9a3.693,3.693,0,1,0,3.687,3.686A3.571,3.571,0,0,0,78.04,69.9m0,6.516a2.834,2.834,0,1,1,2.692-2.83,2.658,2.658,0,0,1-2.692,2.83" transform="translate(4.509 4.24)" fill="#fff"/><path id="Path_36" data-name="Path 36" d="M89.893,67.684H86.276v9.664H87.3V74.3h2.6c2.458,0,3.949-1.243,3.949-3.3s-1.491-3.313-3.949-3.313M89.865,73.4H87.3V68.568h2.568c1.934,0,2.954.884,2.954,2.43,0,1.519-1.02,2.4-2.954,2.4" transform="translate(5.233 4.106)" fill="#fff"/><path id="Path_37" data-name="Path 37" d="M97.855,69.9a3.5,3.5,0,0,0-3.548,3.686,3.838,3.838,0,0,0,6.612,2.513l-.552-.635a2.864,2.864,0,0,1-2.223.954,2.687,2.687,0,0,1-2.857-2.526h6.074c0-.11.014-.222.014-.3a3.46,3.46,0,0,0-3.52-3.686m-2.568,3.258a2.58,2.58,0,0,1,5.149,0Z" transform="translate(5.72 4.24)" fill="#fff"/><path id="Path_38" data-name="Path 38" d="M103.537,71.374V69.952H102.6v7.261h.98v-3.7c0-1.712.925-2.678,2.444-2.678.069,0,.152.014.235.014V69.9a2.739,2.739,0,0,0-2.721,1.477" transform="translate(6.223 4.24)" fill="#fff"/><path id="Path_39" data-name="Path 39" d="M110.024,67.9a1.656,1.656,0,0,1,1.077.36l.332-.732a2.3,2.3,0,0,0-1.45-.456,2,2,0,0,0-2.2,2.154v.9h-1.3v.829h1.3v6.433h.981V70.952h2.208v-.829H108.74v-.855c0-.9.442-1.367,1.284-1.367" transform="translate(6.459 4.068)" fill="#fff"/><path id="Path_40" data-name="Path 40" d="M114.6,69.9a3.693,3.693,0,1,0,3.686,3.686A3.571,3.571,0,0,0,114.6,69.9m0,6.516a2.834,2.834,0,1,1,2.692-2.83,2.658,2.658,0,0,1-2.692,2.83" transform="translate(6.726 4.24)" fill="#fff"/><path id="Path_41" data-name="Path 41" d="M120.432,71.374V69.952h-.939v7.261h.98v-3.7c0-1.712.925-2.678,2.444-2.678.069,0,.152.014.235.014V69.9a2.739,2.739,0,0,0-2.721,1.477" transform="translate(7.247 4.24)" fill="#fff"/><path id="Path_42" data-name="Path 42" d="M133.4,69.9a3.163,3.163,0,0,0-2.871,1.532,2.609,2.609,0,0,0-2.582-1.532,2.937,2.937,0,0,0-2.665,1.38V69.952h-.938v7.261h.979V73.4a2.341,2.341,0,0,1,2.431-2.623c1.325,0,2.1.787,2.1,2.32v4.113h.98V73.4a2.334,2.334,0,0,1,2.43-2.623c1.311,0,2.084.787,2.084,2.32v4.113h.98V73c0-2.084-1.159-3.106-2.926-3.106" transform="translate(7.542 4.24)" fill="#fff"/></g></g><g id="Group_32" data-name="Group 32" transform="translate(0.006 0.001)"><g id="Group_31" data-name="Group 31" clip-path="url(#clip-path-2)"><path id="Path_43" data-name="Path 43" d="M148.839,1.447V81.392h1.656V1.447h-1.656Z" transform="translate(9.021 0.087)" fill="#459134"/><rect id="Rectangle_26" data-name="Rectangle 26" width="15.722" height="55.939" transform="translate(-0.006 1.522)" fill="#fff"/></g></g><g id="logo1"><g id="logo2" clip-path="url(#clip-path)"><path id="logo8" d="M105.958,41.622h7.86c14.02,0,24.311-7.05,24.311-20.5v-.162c0-10.943-7.1-17.959-18.468-19.521H90.236V57.375h15.722Zm0-27.31h7.455c5.592,0,9.076,2.513,9.076,7.375v.161c0,4.458-3.484,7.456-9,7.456h-7.536Z" transform="translate(5.473 0.088)" fill="#fff"/><path id="logo7" d="M55.447,46.978H53.922a.427.427,0,0,1-.427-.426V43a.428.428,0,0,1,.154-.329c.318-.243.64-.478.958-.72L67.533,30.9h0l.576-.451c-1.017-1.286-3.481-.429-3.481-.429L52.324,35.471A20.127,20.127,0,0,1,38.149,21.13a20.939,20.939,0,0,1-.994-4.044q-.108-.689-.193-1.383c-.233-1.851-.388-3.723-.723-5.555a8.681,8.681,0,0,0-1.658-4.139l-.015-.015a4.145,4.145,0,0,0-.315-.326q-.167-.153-.349-.292a2.882,2.882,0,0,0-1.675-.5c-2.92,0-6.377,3.613-6.377,3.613L49.379,42.991l0,0a.424.424,0,0,1,.088.259v3.3a.427.427,0,0,1-.427.426H47.28A3.777,3.777,0,0,0,43.5,50.755v6.411H59.224V50.755a3.777,3.777,0,0,0-3.777-3.777" transform="translate(1.568 0.296)" fill="#459134"/><path id="logo6" d="M54.972,17.923c.1.253.175.522.247.77a7.436,7.436,0,0,0,2.574,3.725,6.789,6.789,0,0,0,4.582,1.169,6.976,6.976,0,0,1,4.1,1.188,5.572,5.572,0,0,1,1.275,1.284,8.924,8.924,0,0,1,.925,1.888l-.406.148-2.2.805c1.406-.04,2.572,1.888,2.572,1.888l.011.007-3.5,3.1V57.374H84.595V1.435H64.946Z" transform="translate(3.334 0.088)" fill="#fff"/><path id="logo5" d="M69.1,27.163a2.881,2.881,0,0,0-.591-.769c-1.5-1.441-3.4-.962-5.269-.962a17.376,17.376,0,0,1-3.665-.394,10.581,10.581,0,0,1-5.655-3.417,58.509,58.509,0,0,1-4.8-6.944c-1.678-2.548-3.449-5.039-5.149-7.576l-3.8-5.665H21.713V57.375H37.419l.017-22.318-.006-.025v-6.25L24.242,8.541l.812-.849c.4-.416,3.984-4.06,7.425-4.06a4.3,4.3,0,0,1,2.5.762l.028.019.027.02a7.836,7.836,0,0,1,2.651,4.579c.427,1.8.6,3.649,1.086,5.442q.633,2.366,1.491,4.665.619,1.661,1.363,3.27c2.3,4.943,5.927,10.1,11.206,10.854L66.84,28.007Z" transform="translate(1.317 0.088)" fill="#fff"/><path id="logo4" d="M281.893,60.209V61h-1.508v4.011h-.937V61H277.94v-.794Zm5.1,4.806-.174-2.828c-.017-.37-.017-.829-.034-1.343h-.052c-.122.424-.261.99-.4,1.432l-.851,2.668h-.969l-.851-2.739c-.086-.371-.225-.937-.329-1.361h-.052c0,.442-.018.9-.035,1.343l-.174,2.828h-.9l.347-4.806h1.405l.815,2.35c.1.37.191.723.312,1.218h.018c.121-.441.225-.847.329-1.2l.815-2.367h1.352l.365,4.806Z" transform="translate(16.857 3.652)" fill="#fff"/></g></g></svg>